# xmcd
#
# Track frame offsets:
#	150
#	18622
#	40777
#	62670
#
# Disc length: 1133 seconds
#
# Revision: 1
# Processed by: cddbd v1.5.2PL0 Copyright (c) Steve Scherf et al.
# Submitted via: EZCDAudioConverter 2.8.0.1
#
DISCID=2c046b04
DTITLE=Montell Jordan - Let's Ride
DYEAR=1900
DGENRE=
TTITLE0=Let's Ride (D&A Beatbox Revenge Mix)
TTITLE1=Let's Ride (Dutch Factory Remix)
TTITLE2=Let's Ride (Dave Mazee's Wicked Mix)
TTITLE3=	Let's Ride (Super Jupiter Lectro Mix)
EXTD=
EXTT0=
EXTT1=
EXTT2=
EXTT3=
PLAYORDER=
